<svg xmlns="http://www.w3.org/2000/svg" id="scrub_daddy_logo_4_spot_colors" data-name="scrub daddy logo_4 spot colors" viewBox="0 0 792 503.3"><defs><style>      .cls-1 {        fill: #fff200;      }      .cls-1, .cls-2, .cls-3, .cls-4 {        stroke-width: 0px;      }      .cls-2 {        fill: #fff9ae;      }      .cls-3 {        fill: #fcb53c;      }      .cls-4 {        fill: #0033a1;      }    </style></defs><path class="cls-4" d="M725.92,222.99c0-1.39-1.03-2.09-3.1-2.09h-2.84v7.26h1.76v-2.97h.86l1.39,2.97h1.96l-1.62-3.24c.99-.25,1.58-.97,1.58-1.93M722.6,224.13h-.86v-2.11h.77c1.06,0,1.59.32,1.59,1.08s-.49,1.03-1.49,1.03M727.37,220.08c-1.26-1.28-2.9-1.96-4.7-1.96-2.36,0-4.39,1.17-5.56,3.15-.65,1.1-.95,2.23-.95,3.4,0,1.69.65,3.31,1.87,4.56,1.26,1.28,2.9,1.98,4.65,1.98s3.35-.67,4.63-1.91c1.24-1.21,1.93-2.83,1.93-4.63s-.65-3.37-1.85-4.59M726.55,228.52c-1.08,1.03-2.45,1.6-3.87,1.6s-2.83-.59-3.87-1.66c-1.03-1.03-1.57-2.38-1.57-3.82s.59-2.85,1.66-3.91,2.32-1.55,3.8-1.55,2.84.56,3.91,1.64c1.03,1.04,1.55,2.36,1.55,3.93,0,1.4-.58,2.77-1.6,3.76M746.58,141.29l-15.19-11.83,12.31-14.8-17.45-8.12,8.7-17.16-18.8-4.04,4.68-18.66-19.23.22.42-19.25-18.72,4.51-3.9-18.86-17.23,8.58-7.99-17.49-14.9,12.16-11.67-15.31-11.82,15.19-14.8-12.32-8.12,17.45-17.16-8.7-4.04,18.8-18.65-4.68.22,19.23-19.25-.42,4.51,18.72-18.86,3.9,8.58,17.23-9.87,4.51c-6.81-3.13-16-4.88-28.12-2.65-.86.16-1.71.33-2.56.53.82-10.66-.02-23.79-9.22-32.47-6.85-6.45-16.35-8.61-28.23-6.43-12.84,2.36-26.17,12.07-33.17,24.17-2.47,4.26-2.52,9.5-.21,13.85,1.39,2.62,3.54,4.69,6.11,6.01-.07,1.5-.24,3.59-.59,6.44l-.56,4.57c-3.11-.39-6.51-.27-10.22.41l-22.1,4.06c-6.14,1.13-10.83,6.11-11.59,12.3l-.37,3.03c-.92-1.25-1.97-2.44-3.16-3.56-6.85-6.45-16.34-8.62-28.23-6.43-6.36,1.17-12.85,4.15-18.62,8.32-4.64-2.32-10.14-3.04-16.02-1.96-6.6,1.21-13.71,5.12-20.19,10.85-6.16-3.49-14.1-4.54-23.31-2.85-8.26,1.52-16.72,6.09-23.58,12.38-8.25-3.72-18.74-4.61-30.56-2.44-15.83,2.91-30.34,10.76-41.95,21.8.45-2.06.8-4.09,1.06-6.15,1.83-14.85-3.64-23.49-8.55-28.12-12.06-11.36-31.13-9.43-44.44-6.98-34.9,6.41-61.12,33.24-65.25,66.76-2.23,18.1,3.54,29.48,11.87,36.81-1.8-.11-3.65.12-5.41.71-3.85,1.29-6.97,4.16-8.58,7.9-3.86,8.97-5.96,16.07-6.81,23.02-1.78,14.42,3.65,22.91,8.51,27.49,7.38,6.96,17.68,9.06,27.92,9.06.53,0,1.06-.02,1.6-.03l-18.38,149.29c-.93,7.55,3.59,14.72,10.81,17.13,11.76,3.93,22.79,5.76,34.71,5.76,8.17,0,16.96-.89,26.89-2.71,26.98-4.96,50.4-18.26,67.98-38.53,1.06,1.66,2.17,3.11,3.26,4.34,7.57,8.55,18.75,13.07,32.35,13.07,3.99,0,8.18-.4,12.47-1.19,10.58-1.94,19.73-5.59,27.68-11.04,4.13,1.71,8.76,2.6,13.76,2.6,3.01,0,6.24-.32,9.61-.93,12.06-2.21,24.49-9.99,33.18-20.31,7.9,5.54,17.51,8.52,27.9,8.52,3.59,0,7.3-.35,11.04-1.04,10.33-1.9,19.96-5.91,28.15-11.63,3.92,1.75,8.73,2.89,14.61,2.89,3.23,0,6.62-.33,10.36-1.02,12.11-2.23,24.6-10.06,33.29-20.45,7.75,5.19,17.07,7.98,27.12,7.98,3.59,0,7.31-.35,11.05-1.04,10.33-1.9,19.95-5.91,28.15-11.63,3.92,1.75,8.73,2.89,14.61,2.89,3.24,0,6.63-.33,10.36-1.02,4.42-.81,8.89-2.39,13.21-4.55,0,10.81,3.23,20.14,9.53,27.27,5.26,5.94,15.19,13.03,32.69,13.03,4.56,0,9.5-.48,14.68-1.44,45.47-8.35,79.42-50.86,86.49-108.28l8.17-66.35c.51-4.11,2.05-16.61-5.98-25.69-2.85-3.23-7.81-7-15.75-7.89,19.25-15.48,33.31-37.16,39.17-62.26l1.16-4.98-6.88-8.42,15.31-11.67ZM398.98,280.15c-.33,0-.66,0-1,0-3.72,0-7.62.37-11.58,1.1-20.61,3.79-38.86,16.99-51.61,35.78-.86-1.23-1.78-2.42-2.78-3.55-8.38-9.48-20.8-14.28-36.92-14.28h0c-5.75,0-12.07.63-18.79,1.86-14.65,2.69-31.17,7.95-43.37,18.13-2.53-6.08-5.88-11.51-10.08-16.25-3.99-4.51-9.76-9.45-17.85-13.31.27-.05.52-.08.79-.13,10.53-1.93,21.76-6.97,30.68-14.32.03.03.06.07.1.1,2.67,2.52,6.19,3.89,9.8,3.89.86,0,1.72-.08,2.58-.24l22.1-4.06c11.06-2.03,24.79-8.93,27.41-30.26l4.15-33.69h0c.58-4.72,2.43-7.02,6.17-7.71,2.02-.37,4.17-.24,6.04.36.35.11.7.2,1.04.28l-.79,6.43c-2.44,19.8,1.21,34.45,10.85,43.53,4.44,4.18,11.79,8.61,22.99,8.61,2.71,0,5.65-.26,8.82-.84,8.65-1.59,17.29-5.63,25.23-11.7,4.67,2.65,10.94,4.2,19.32,3.34l-3.32,26.93ZM528.76,214.73l-5.19,42.16c-.33,0-.67,0-1,0-3.72,0-7.61.37-11.57,1.1-13.86,2.55-26.65,9.37-37.43,19.27l3.06-24.87c.28-2.3.89-7.23-.04-12.72,19.6-4.57,40.8-18.61,53.49-41.45,1.29,2.18,2.65,4.31,4.09,6.4-2.92,2.53-4.91,6.1-5.41,10.13"></path><path class="cls-1" d="M729.56,141.2l-13.02-10.13,10.55-12.68-14.96-6.96,7.46-14.72-16.14-3.47,4.02-16.01-16.5.19.36-16.5-16.04,3.86-3.34-16.16-14.77,7.36-6.86-15.02-12.79,10.44-10-13.13-10.13,13.02-12.68-10.55-6.97,14.96-14.72-7.46-3.47,16.14-16.01-4.02.19,16.5-16.5-.36,3.86,16.04-16.16,3.34,7.36,14.77-13.92,6.36c7.53,7.21,15.71,21.3,12.45,47.7h0c-.97,7.86-2.81,15.13-5.34,21.81,2.45,4.89,5.29,9.58,8.49,14.02l24.11-4.43c2.8-.51,5.35-.76,7.8-.76h0c10.07,0,16.07,4.4,19.33,8.08,8.02,9.07,6.49,21.57,5.98,25.68l-1.28,10.37c1.29.35,2.6.69,3.91,1,13.85,3.22,27.71,3.46,40.9,1.14,39.21-6.91,72.51-36.48,82.12-77.62l-10.44-12.79,13.13-10ZM585.77,113.26c1.25-5.37,5.58-9.21,10.68-10.11,1.72-.3,3.53-.27,5.34.15,7.17,1.67,11.64,8.84,9.97,16.02-1.25,5.37-5.58,9.22-10.68,10.12-1.72.3-3.53.27-5.34-.15-7.17-1.67-11.64-8.84-9.96-16.02M641.51,196.63c-47.07,8.3-76.2-33.36-76.2-33.36,48.15,30.12,93.52,24.39,103.5,22.63,1.33-.23,2.03-.4,2.03-.4-10.4,6.04-20.2,9.52-29.33,11.13M676.27,134.34c-1.25,5.37-5.58,9.21-10.68,10.11-1.72.3-3.53.27-5.34-.15-7.17-1.67-11.64-8.84-9.97-16.02,1.25-5.37,5.58-9.21,10.68-10.11,1.72-.3,3.53-.27,5.34.15,7.17,1.67,11.64,8.84,9.97,16.02M571.28,341.25c-2.29,18.59-.36,24.3,8.49,24.91-5.67,9.79-17.1,18.62-27.89,20.61-10.79,1.99-18.49.26-22.22-7.36-8.05,9.33-19.49,15.02-30.91,17.12-27.6,5.07-46.01-15.11-41.42-52.3,4.61-37.42,28.94-65.45,56.55-70.52,8.92-1.64,17.15-.91,23.4,2.66l7.35-59.68,26.35-4.84c11.62-2.13,15.92,2.46,14.34,15.31l-14.05,114.1ZM533.67,305.75c-3.87-1.53-8.14-1.42-11.88-.73-11.41,2.1-18.72,15.33-20.67,31.17-1.98,16.07,1.99,24.99,11.95,23.16,8.72-1.6,15.17-9.52,16.81-22.83l3.79-30.76ZM591.89,301.64c2.29-18.6.36-24.3-8.49-24.92,5.67-9.79,17.1-18.62,27.89-20.61,18.26-3.35,27.6,4.8,24.07,33.5l-3.08,25.02c-1.5,12.17,1.92,17.38,8.77,16.12,6.85-1.26,13.27-10.51,15.02-24.75l6.92-56.25,26.35-4.84c11.62-2.14,15.92,2.46,14.34,15.32l-8.17,66.35c-6.36,51.65-35.73,87.56-73.5,94.5-30.3,5.57-40.01-9.48-37.69-28.3,1.16-9.41,5.46-19.62,11.84-28.65-7.04-7.01-9.53-19.79-7.38-37.24l3.11-25.25ZM619.67,369.23c-3.94.72-7.41.91-10.62.6-1.14,2.68-1.84,5.05-2.13,7.35-.99,8.04,5.95,11.02,14.25,9.5,13.7-2.52,26.74-14.56,29.23-34.76-9.23,9.1-19.74,15.29-30.73,17.32M150.4,300.81c50.22-9.23,77.81,12.18,71.33,64.75-5.63,45.68-34.3,89.09-86.8,98.74-20.75,3.82-36.31,3.31-53.65-2.48l18.68-151.75,50.43-9.26ZM138.86,340.18l-10.52,85.4c2.71,1.07,6.54,1.27,11.11.43,20.12-3.7,33.96-22.17,37.41-50.18,3.9-31.68-9.16-40.95-31.78-36.79l-6.22,1.14ZM329.94,412.02c-5.67,9.79-17.1,18.63-27.89,20.61-9.96,1.83-17.04-.01-21.11-6.44-7.02,7.57-16.24,13.3-29.94,15.82-21.99,4.04-37.69-5.19-34.95-27.46,2.63-21.35,17.74-40.28,49.07-46.04,5.19-.96,10.74-1.53,16.85-1.75l.6-4.82c1.13-9.18-4.67-11.48-14.22-9.73-9.54,1.75-22.6,7.29-36,14.02-1.25-4.7-1.51-9.15-1-13.28,2.26-18.37,17.77-30.64,47.86-36.17,32.79-6.02,50.31,4.9,46.69,34.28l-4.5,36.5c-2.29,18.6-.3,23.84,8.55,24.46M277.78,400.73l1.27-10.33c-2.02-.08-4.89.23-6.35.5-5.6,1.03-11.57,5.04-12.39,11.7-.76,6.2,2.81,8.46,6.75,7.73,5.6-1.03,10.18-5.24,10.72-9.6M446.7,364.51c-2.29,18.59-.36,24.3,8.49,24.91-5.67,9.79-17.1,18.62-27.89,20.61-10.79,1.98-18.49.26-22.22-7.36-8.05,9.33-19.5,15.02-30.91,17.12-27.6,5.07-46-15.11-41.42-52.3,4.61-37.42,28.95-65.45,56.55-70.52,8.93-1.64,17.15-.91,23.4,2.66l7.35-59.69,26.36-4.84c11.62-2.14,15.93,2.46,14.34,15.31l-14.05,114.1ZM409.08,329.01c-3.86-1.53-8.14-1.41-11.88-.73-11.41,2.1-18.72,15.33-20.67,31.17-1.98,16.07,1.99,24.99,11.95,23.16,8.72-1.6,15.17-9.52,16.81-22.83l3.79-30.77ZM99.84,294.42c-29.41,5.4-42.27-.7-40.06-18.61.69-5.59,2.42-11.36,5.76-19.12,10.49,5.98,26.51,8.48,37.82,6.41,8.35-1.53,14.38-4.9,15.07-10.48,2.18-17.71-55.14-1.16-49.71-45.25,3.39-27.53,24.94-49.18,53.65-54.46,26.63-4.89,38.44,1.4,36.23,19.31-.69,5.58-2.22,11.14-5.58,19.09-9.49-5.78-24.42-8.87-34.17-7.08-7.31,1.34-12.73,5.35-13.44,11.12-1.94,15.79,55.16.96,49.73,45.05-3.39,27.53-25.54,48.54-55.3,54M238.89,245.54c-1.68,13.67-18.43,26.72-35.83,29.92-33.24,6.11-47.3-12.38-43.67-41.84,3.75-30.42,27.98-55.94,56.87-61.25,21.75-4,32.72,5.09,31.22,17.21-.92,7.51-6.57,16.08-17.55,23.74-2.45-9.15-7.23-13.16-14.89-11.76-9.75,1.79-17.23,11.44-18.82,24.34-1.51,12.32,3.57,20.79,15.58,18.59,8.87-1.63,17.98-6.5,25.47-13.52,1.73,5.33,2.16,10.14,1.61,14.57M288.27,209.18l-4.15,33.69c-1.33,10.78-6.07,16.17-15.82,17.96l-22.1,4.06,7.92-64.3c1.92-15.59.3-20.37-7.12-20.89,4.75-8.21,14.34-15.62,23.39-17.28,10.96-2.02,17.9,1.04,20.01,11.56,6.55-10.43,16.19-18.22,23.5-19.56,7.48-1.38,13.14,2.48,11.64,14.6-.78,6.35-3.25,13.96-6.49,20.95-4.09-1.32-8.65-1.61-13-.81-8.36,1.54-16.23,7.5-17.77,20.02M332.27,186.23c1.92-15.59.3-20.37-7.12-20.89,4.75-8.21,14.34-15.62,23.39-17.28,15.32-2.82,23.15,4.02,20.19,28.09l-3.16,25.6c-1.26,10.2,1.61,14.57,7.35,13.51,5.74-1.06,11.12-8.82,12.59-20.75l6.38-51.79,22.1-4.06c9.75-1.79,13.36,2.06,12.02,12.85l-6.02,48.9c-1.92,15.6-.3,20.38,7.12,20.89-4.76,8.21-14.34,15.62-23.39,17.28-10.27,1.89-17.13-.43-19.77-9.35-8.33,9.62-18.52,16.38-28.96,18.31-20.36,3.74-29.03-10.09-25.91-35.51l3.18-25.8ZM526.5,162.96c-4.43,36-31.4,58.83-55.77,63.31-28.36,5.21-46.01-10.36-42.02-42.71l7.65-62.18c1.92-15.6.3-20.37-7.12-20.9,4.75-8.21,14.34-15.61,23.39-17.28,15.32-2.81,23.15,4.03,20.19,28.09l-2.52,20.41c7.12-5.26,14.34-8.65,22.34-10.12,23.49-4.32,37.72,10,33.86,41.38M489.54,171.63c1.64-13.28-2.1-21.63-11.67-19.87-3.13.58-6.86,1.83-10.58,4.39l-3.18,25.8c-1.38,11.17,2.61,16.08,9.92,14.74,8.35-1.53,13.85-11.57,15.5-25.05"></path><path class="cls-3" d="M529.25,379.8c-8.02,9.05-19.26,14.61-30.49,16.68-14.02,2.57-25.65-1.37-33.12-10.73,7.25,5.7,16.93,7.79,28.12,5.73,11.41-2.1,22.86-7.79,30.91-17.12,1.15,2.36,2.69,4.15,4.58,5.44M502.42,353.97c-1.81-4.02-2.26-10.08-1.3-17.83,1.95-15.84,9.26-29.07,20.67-31.17,2.03-.37,4.21-.56,6.4-.43l.47-3.84c-3.87-1.53-8.14-1.42-11.88-.73-11.41,2.1-18.72,15.33-20.67,31.17-1.55,12.56.56,20.73,6.3,22.83M573.21,363.56c-6.04,8.78-16.45,16.34-26.32,18.16-6.88,1.26-12.5,1.01-16.64-1.31,3.91,6.71,11.37,8.2,21.64,6.31,10.79-1.99,22.23-10.82,27.89-20.61-2.91-.2-5.06-.97-6.57-2.55M579.83,211.82c.88,2.52,1.04,5.91.5,10.28l-14.05,114.1c-1.96,15.92-.81,22.37,5.11,24.29-1.34-3.82-1.26-9.91-.11-19.29l14.05-114.1c1.08-8.81-.6-13.73-5.5-15.28M607.18,381.27c-.35-1.18-.46-2.53-.27-4.08.28-2.3.98-4.67,2.13-7.35,3.21.31,6.68.12,10.62-.6,7.94-1.46,15.61-5.12,22.73-10.45,1.41-3.58,2.46-7.52,3-11.87-9.23,9.1-19.74,15.29-30.73,17.32-3.94.72-7.41.91-10.62.6-1.14,2.68-1.84,5.05-2.13,7.35-.59,4.78,1.64,7.75,5.27,9.08M698.16,244.96c.88,2.52,1.04,5.91.5,10.28l-8.17,66.35c-6.36,51.65-35.73,87.56-73.5,94.5-13.49,2.48-22.89.87-28.97-3.35,5.27,7.7,16,11.65,33.97,8.35,37.77-6.94,67.14-42.85,73.5-94.5l8.17-66.35c1.09-8.81-.6-13.74-5.5-15.28M630.35,284.63l-3.08,25.02c-1.23,10,.86,15.29,5.44,16.16-.85-2.66-1.03-6.36-.44-11.16l3.08-25.02c2.22-18.09-.66-28.01-7.68-32.04,3.25,5.42,4.26,14.15,2.68,27.04M206.7,309.51c9.19,11.12,12.85,28.12,10.03,51.05-5.63,45.68-34.3,89.09-86.8,98.74-18.57,3.41-32.98,3.35-48.23-.84l-.41,3.36c17.34,5.79,32.89,6.3,53.65,2.48,52.5-9.65,81.17-53.06,86.8-98.74,3.29-26.71-2.23-45.36-15.03-56.05M128.84,421.5l10.02-81.32,6.22-1.14c9.53-1.75,17.35-1.11,22.94,2.58-5.32-7.96-15.08-9.94-27.94-7.58l-6.22,1.14-10.52,85.4c1.5.59,3.38.89,5.5.92M263.34,347.22c-8.63,1.59-20.13,6.27-32.16,12.13.16,2.23.53,4.52,1.16,6.89,13.4-6.73,26.46-12.26,36-14.02,3.61-.66,6.68-.74,9.04-.1-1.27-5.12-6.47-6.29-14.04-4.9M320.88,346.07l-4.49,36.5c-1.95,15.82-.78,21.96,5.06,23.83-1.27-3.72-1.19-9.64-.06-18.83l4.49-36.5c1.79-14.55-1.61-24.57-9.47-30.25,4.23,5.9,5.82,14.29,4.47,25.25M323.32,409.55c-6.05,8.75-16.42,16.27-26.27,18.08-9.96,1.83-17.04,0-21.11-6.44-7.02,7.57-16.24,13.3-29.94,15.82-10.77,1.98-20.01.76-26.34-3.6,5.72,8.29,17.21,11.2,31.34,8.6,13.7-2.52,22.92-8.25,29.94-15.82,4.07,6.43,11.15,8.27,21.11,6.44,10.79-1.98,22.22-10.82,27.89-20.61-2.93-.21-5.1-.94-6.62-2.48M260.32,405.44c-.11-.84-.15-1.76-.01-2.83.82-6.66,6.79-10.67,12.4-11.7.2-.04.43-.07.68-.11l.66-5.38c-2.02-.08-4.89.23-6.34.49-5.61,1.03-11.57,5.04-12.4,11.7-.65,5.26,1.84,7.66,5.01,7.83M377.84,377.23c-1.81-4.02-2.26-10.08-1.3-17.83,1.95-15.84,9.26-29.07,20.67-31.17,2.03-.37,4.21-.57,6.4-.43l.47-3.84c-3.86-1.53-8.14-1.42-11.88-.73-11.41,2.1-18.72,15.33-20.67,31.17-1.55,12.56.56,20.73,6.3,22.83M455.25,235.08c.88,2.52,1.04,5.91.5,10.28l-14.05,114.1c-1.96,15.91-.81,22.37,5.11,24.29-1.34-3.82-1.26-9.91-.11-19.29l14.05-114.1c1.08-8.8-.6-13.73-5.5-15.28M400.08,397.62c-8.05,9.33-19.5,15.03-30.91,17.12-11.19,2.06-20.87-.04-28.12-5.73,7.47,9.36,19.1,13.31,33.12,10.73,11.22-2.06,22.47-7.62,30.49-16.68-1.89-1.29-3.43-3.08-4.58-5.44M448.62,386.82c-6.04,8.78-16.44,16.34-26.32,18.16-6.88,1.26-12.5,1.01-16.64-1.31,3.91,6.71,11.37,8.2,21.64,6.31,10.79-1.98,22.22-10.82,27.89-20.61-2.91-.2-5.06-.97-6.57-2.55M425.75,221.1c.48.08.98.15,1.52.19-.28.49-.64.96-.95,1.44-.23-.49-.41-1.04-.57-1.64M113.45,245.23c-2.22-9.38-26.64-6.5-40.49-16.78,9.27,12.87,30.62,12.36,40.49,16.78M145.96,213.75c3.65,4.96,5.55,11.85,4.34,21.66-3.39,27.53-25.54,48.54-55.3,54-15.82,2.91-26.81,2.45-33.28-1.35,4.58,8.13,17.12,10.24,38.28,6.35,29.76-5.47,51.91-26.47,55.3-54,1.68-13.65-2.64-21.64-9.34-26.66M151.96,154.33c1.85,3.28,2.46,7.56,1.8,12.88-.69,5.58-2.22,11.14-5.58,19.09-9.49-5.78-24.42-8.87-34.17-7.08-7.31,1.34-12.73,5.35-13.44,11.12-.39,3.17,1.63,5.1,5.02,6.53-.07-.48-.09-.98-.02-1.53.71-5.77,6.13-9.78,13.44-11.12,9.75-1.79,24.68,1.3,34.17,7.08,3.36-7.95,4.9-13.51,5.58-19.09,1.07-8.68-1.19-14.61-6.8-17.88M197.94,238.72c-1.66-3.3-2.18-7.72-1.55-12.82,1.59-12.9,9.07-22.55,18.82-24.34,2.92-.54,5.42-.28,7.53.75-2.74-4.83-6.84-6.79-12.53-5.75-9.75,1.79-17.23,11.44-18.82,24.34-1.06,8.58,1.1,15.28,6.55,17.82M240.72,174.9c1.68,2.79,2.36,6.09,1.92,9.67-.86,6.97-5.8,14.86-15.29,22.09,1.12,1.78,2.03,3.99,2.74,6.65,10.98-7.66,16.63-16.23,17.55-23.74.75-6.07-1.63-11.38-6.92-14.67M234.11,233.83c.23,2.33.2,4.56-.07,6.7-1.68,13.67-18.43,26.72-35.83,29.91-14.43,2.65-25.24.66-32.56-4.84,6.95,9.15,19.38,13.18,37.56,9.84,17.4-3.2,34.15-16.25,35.83-29.91.54-4.43.12-9.24-1.61-14.57-1.07,1.01-2.19,1.95-3.32,2.87M320.03,154.64c.87,2.31,1.16,5.38.67,9.37-.78,6.35-3.25,13.96-6.49,20.95-4.09-1.32-8.65-1.61-13-.81-8.36,1.54-16.23,7.5-17.77,20.02l-4.15,33.69c-1.33,10.78-6.07,16.17-15.82,17.96l-16.36,3.01-.75,6.06,22.1-4.06c9.75-1.79,14.49-7.18,15.82-17.96l4.15-33.69c1.54-12.52,9.42-18.48,17.77-20.02,4.35-.8,8.91-.51,13,.81,3.24-6.99,5.71-14.6,6.49-20.95,1.06-8.57-1.46-12.99-5.67-14.37M363.88,171.14l-3.15,25.61c-1.08,8.81.91,13.25,5.17,13.63-.53-2.17-.61-5.02-.17-8.63l3.15-25.61c1.91-15.56-.71-23.89-6.92-27.09,2.46,4.58,3.2,11.73,1.92,22.09M421.17,146.5l-6.02,48.9c-1.71,13.89-.6,19.19,4.9,20.55-.92-3.23-.82-8.17.1-15.55l6.02-48.9c.95-7.72-.64-11.88-5.2-12.96.55,2.04.61,4.67.2,7.96M379.11,224.22c-8.33,9.62-18.52,16.39-28.96,18.31-7.14,1.31-12.81.42-17.07-2.33,4.28,6.52,11.62,9.25,22.07,7.33,9.89-1.82,19.54-8.02,27.61-16.85-1.61-1.57-2.83-3.7-3.65-6.46M421.05,218.22c-5.05,7.42-13.83,13.82-22.16,15.35-5.47,1.01-9.96.8-13.37-.94,3.28,6.07,9.57,7.56,18.37,5.94,9.05-1.66,18.64-9.07,23.39-17.28-2.95-.21-4.97-1.1-6.23-3.07M464.81,191.61c-.82-2.4-1.03-5.62-.53-9.68l3.18-25.8c3.72-2.56,7.44-3.82,10.58-4.39,2.13-.39,3.95-.26,5.51.29-1.83-4.2-5.29-6.25-10.51-5.29-3.13.58-6.86,1.83-10.58,4.39l-3.18,25.8c-1.07,8.66,1.1,13.54,5.53,14.68M467.98,106.29l-2.52,20.4c2.02-1.49,4.06-2.82,6.11-4.01l1.41-11.39c1.91-15.56-.71-23.89-6.92-27.09,2.46,4.58,3.2,11.73,1.92,22.09M516.14,125.43c5.15,7.06,7.32,17.92,5.52,32.52-4.43,36-31.4,58.83-55.77,63.31-12.74,2.34-23.31.48-30.74-5.21,7.23,9.5,19.79,13.14,35.74,10.21,24.37-4.48,51.33-27.31,55.77-63.31,2.3-18.68-1.85-31.27-10.52-37.52M704.56,88.8l-5.78-1.24,2.58-10.27,6.11-.07-2.91,11.59ZM713.56,108.59l6.03-11.89-6.8-1.46-5.33,10.52,6.1,2.84ZM717.57,129.83l9.52-11.45-6.76-3.15-8.46,10.16,5.69,4.43ZM691.33,60.9l-4.82,1.16-.21,9.67,4.79-.06.24-10.78ZM729.56,141.2l-5.99-4.66-11.8,8.99,10.44,12.79c-9.61,41.15-42.92,70.71-82.12,77.62-12.78,2.25-26.19,2.09-39.61-.85l-.54,4.38c1.29.36,2.59.7,3.91,1,13.85,3.23,27.71,3.46,40.9,1.14,39.21-6.91,72.51-36.48,82.12-77.62l-10.44-12.79,13.13-10ZM633.08,45.55l-5.55-7.28-.18.23,5.51,7.23.22-.18Z"></path><path class="cls-2" d="M706.08,82.76l-12.11.14.12-5.54,13.38-.15-1.39,5.55ZM717.37,101.07l2.22-4.38-11.98-2.58-1.16,4.61,10.92,2.35ZM691.19,67.16l.14-6.26-14.26,3.43,1.23,5.93,12.9-3.11ZM542.3,110.64l-13.92,6.36c1.44,1.37,2.89,3,4.29,4.91l12.62-5.77-7.36-14.77,16.16-3.34-3.86-16.04,16.5.36-.19-16.5,16.01,4.02,3.47-16.14,14.72,7.46,6.96-14.96,12.68,10.55,10.13-13.02,10,13.13,12.43-10.15-2.64-5.79-12.79,10.44-10-13.13-10.13,13.02-12.68-10.55-6.96,14.96-14.72-7.46-3.47,16.14-16.01-4.02.19,16.5-16.5-.36,3.86,16.04-16.16,3.34,7.36,14.77ZM673.26,54.95l-1.31-6.34-14.38,7.16,2.6,5.7,13.08-6.52ZM716.81,113.6l-1.68,3.32,9.5,4.42,2.46-2.96-10.28-4.79ZM507.27,358.96c1.64.64,3.56.8,5.8.38,8.72-1.6,15.17-9.52,16.81-22.83l3.31-26.87c1.81.12,3.63.46,5.37,1.15l-3.79,30.76c-1.64,13.31-8.09,21.23-16.81,22.83-5.2.96-8.75-1.04-10.69-5.43M462.22,349.28c4.61-37.42,28.94-65.45,56.55-70.52,8.92-1.64,17.15-.91,23.4,2.66l7.35-59.68,26.36-4.84c3.74-.69,6.72-.67,8.99.09-1.68-4.98-6.15-6.56-13.88-5.14l-26.35,4.84-7.35,59.68c-6.25-3.56-14.48-4.3-23.4-2.66-27.6,5.07-51.94,33.1-56.55,70.52-2.69,21.82,2.54,37.78,12.9,46.22-7.03-9.09-10.23-23.12-8.01-41.18M637.59,330.68c1.29,4.14,4.18,5.78,8.35,5.02,6.85-1.26,13.27-10.51,15.02-24.75l6.92-56.25,26.35-4.84c3.74-.69,6.72-.67,8.99.09-1.68-4.98-6.15-6.56-13.88-5.14l-26.35,4.84-6.93,56.25c-1.75,14.23-8.17,23.49-15.02,24.75-1.28.23-2.43.24-3.46.03M626.07,391.62c13.7-2.52,26.74-14.56,29.23-34.76-2.53,2.49-5.16,4.74-7.86,6.77-5.15,13.08-15.49,20.97-26.25,22.95-3.44.63-6.62.48-9.13-.48,1.42,5.02,7.26,6.76,14.02,5.52M589.93,279.12c6.05-8.74,16.41-16.26,26.26-18.07,6.87-1.26,12.47-.89,16.6,1.58-3.96-6.79-11.34-8.49-21.49-6.62-10.79,1.99-22.22,10.82-27.89,20.61,2.88.2,5.01.96,6.52,2.5M589.22,397.72c1.16-9.41,5.46-19.62,11.84-28.65-7.04-7.01-9.53-19.79-7.38-37.24l3.11-25.25c1.94-15.78.83-22.26-4.96-24.24,1.3,3.83,1.21,9.9.07,19.2l-3.11,25.25c-2.15,17.44.34,30.23,7.38,37.24-6.38,9.02-10.68,19.24-11.84,28.65-1.27,10.32,1.08,19.5,8.45,24.77-3.49-5.25-4.5-12.18-3.57-19.73M144.33,431.1c20.12-3.7,33.96-22.17,37.41-50.18,2.23-18.14-1.1-28.92-8.6-34.05,3.94,6.05,5.38,15.48,3.71,29.01-3.45,28.01-17.29,46.48-37.41,50.18-2.08.38-3.98.52-5.71.49l-.51,4.12c2.71,1.07,6.54,1.27,11.11.43M104.86,315.17l50.43-9.26c24.95-4.59,44.31-1.6,56.69,9.01-11.82-14.63-33.04-19.29-61.57-14.05l-50.43,9.26-18.68,151.75c1.79.6,3.55,1.12,5.31,1.61l18.26-148.31ZM284.01,395.34c-1.7-.07-4,.14-5.55.37l-.6,4.92c-.54,4.36-5.11,8.57-10.72,9.6-.64.12-1.26.13-1.86.08.49,4.06,3.47,5.56,6.75,4.96,5.6-1.03,10.18-5.24,10.72-9.6l1.27-10.33ZM236.14,364.29c-.15-2.21-.09-4.34.16-6.4,2.26-18.37,17.77-30.64,47.86-36.17,16.75-3.08,29.51-1.72,37.51,4.25-7.04-10.13-21.66-13.1-42.39-9.29-30.09,5.53-45.6,17.8-47.86,36.17-.51,4.13-.25,8.57,1,13.28,1.25-.63,2.49-1.23,3.73-1.83M221,419.48c2.63-21.35,17.74-40.28,49.07-46.04,5.19-.95,10.74-1.53,16.85-1.75l.6-4.82c.69-5.64-1.24-8.68-5.04-9.78.31,1.32.38,2.88.15,4.74l-.6,4.82c-6.11.23-11.66.8-16.85,1.75-31.33,5.76-46.45,24.68-49.08,46.04-1.38,11.24,1.94,19.14,8.38,23.71-3.09-4.6-4.46-10.8-3.5-18.67M393.33,387.64c8.72-1.6,15.17-9.51,16.81-22.83l3.79-30.77c-1.73-.69-3.55-1.03-5.37-1.15l-3.31,26.88c-1.64,13.31-8.09,21.23-16.81,22.83-2.24.41-4.17.25-5.8-.38,1.94,4.39,5.49,6.38,10.69,5.43M337.6,372.53c4.61-37.42,28.95-65.45,56.55-70.52,8.92-1.64,17.15-.91,23.4,2.66l7.35-59.69,26.36-4.84c3.75-.69,6.72-.67,8.99.09-1.68-4.98-6.15-6.56-13.88-5.14l-26.36,4.84-7.35,59.69c-6.25-3.57-14.48-4.3-23.4-2.66-27.6,5.07-51.94,33.1-56.55,70.52-2.69,21.82,2.54,37.77,12.9,46.22-7.03-9.09-10.24-23.12-8.01-41.18M66.36,292.96c-5.41-3.28-7.58-8.97-6.58-17.14.69-5.59,2.42-11.36,5.76-19.12,10.49,5.98,26.51,8.48,37.82,6.41,8.35-1.53,14.38-4.9,15.07-10.48.1-.84.03-1.58-.12-2.28,3.42,1.57,5.45,3.74,5,7.32-.69,5.58-6.71,8.94-15.07,10.48-11.31,2.08-27.33-.43-37.82-6.41-3.34,7.76-5.07,13.53-5.76,19.12-.61,4.94-.03,8.95,1.69,12.1M110.29,201.83c1.14,9.24,26.6,6.27,40.77,17.27-9.36-13.27-31.02-13.08-40.77-17.27M77.51,233.23c-3.36-4.8-5.06-11.43-3.91-20.82,3.39-27.53,24.94-49.18,53.66-54.46,13.87-2.55,23.69-2.03,29.63,1.55-4.29-7.89-15.68-10.06-34.52-6.6-28.72,5.28-50.26,26.92-53.65,54.46-1.63,13.24,2.42,20.99,8.79,25.86M216.69,249.53c7.64-1.4,15.45-5.22,22.26-10.74-.25-2.49-.79-5.09-1.68-7.83-7.5,7.02-16.6,11.89-25.47,13.52-3.73.68-6.79.34-9.19-.83,2.33,4.74,6.99,7.18,14.07,5.88M164.27,238.66c3.75-30.42,27.98-55.94,56.87-61.25,11.03-2.03,19.27-.68,24.53,2.71-3.95-6.79-13.93-10.6-29.42-7.75-28.89,5.31-53.12,30.83-56.87,61.25-2.03,16.46,1.47,29.5,10.76,36.73-5.57-7.57-7.49-18.53-5.87-31.69M295.29,179.02c6.55-10.43,16.19-18.22,23.5-19.56,2.26-.42,4.34-.35,6.12.28-1.75-4.78-5.95-6.25-11.01-5.32-6.71,1.23-15.38,7.91-21.82,17.06,1.49,1.88,2.58,4.36,3.21,7.54M259.01,205.63c1.7-13.78.62-19.11-4.77-20.52.9,3.23.79,8.15-.11,15.48l-7.92,64.3,5.63-1.04,7.17-58.22ZM253.19,182.7c5.06-7.37,13.79-13.72,22.09-15.24,5.44-1,9.89-.75,13.25,1.04-3.21-6.06-9.39-7.69-18.13-6.08-9.05,1.66-18.64,9.07-23.39,17.28,2.92.2,4.93,1.08,6.19,3M370.61,215.36c.96,4.01,3.47,5.63,7.2,4.94,5.74-1.06,11.12-8.82,12.59-20.75l6.38-51.79,22.1-4.06c2.83-.52,5.13-.55,6.95-.08-1.23-4.7-5.03-6.21-11.84-4.96l-22.1,4.06-6.38,51.79c-1.47,11.93-6.85,19.7-12.59,20.75-.84.15-1.6.18-2.31.1M333.98,217.07l3.18-25.8c1.69-13.78.62-19.11-4.78-20.52.9,3.23.79,8.15-.11,15.48l-3.18,25.8c-2.01,16.35.89,27.87,8.62,33.04-3.98-6.2-5.24-15.73-3.73-28M331.33,168.34c5.06-7.37,13.79-13.72,22.09-15.24,5.5-1.01,10.02-.75,13.43,1.08-3.24-6.16-9.54-7.74-18.32-6.12-9.05,1.66-18.64,9.07-23.39,17.28,2.92.2,4.93,1.08,6.19,3M478.92,201.73c8.35-1.53,13.85-11.57,15.5-25.05,1.26-10.23-.68-17.51-6.01-19.52,1.49,3.51,1.86,8.48,1.12,14.48-1.66,13.48-7.15,23.52-15.5,25.05-1.7.31-3.21.27-4.52-.09,1.42,4.28,4.73,6,9.41,5.14M475.19,136.74c7.12-5.26,14.34-8.65,22.34-10.12,9.67-1.78,17.74-.34,23.65,4.09-5.89-8.31-15.85-11.46-28.54-9.13-5.77,1.06-11.14,3.14-16.35,6.18l-1.11,8.99ZM433.59,188.61l7.65-62.18c1.7-13.79.62-19.11-4.77-20.53.9,3.23.79,8.15-.11,15.48l-7.65,62.18c-2.17,17.6,2.08,30.22,10.96,37.24-5.47-7.39-7.8-18.23-6.08-32.2M435.43,103.49c5.06-7.37,13.79-13.72,22.09-15.24,5.5-1.01,10.02-.75,13.44,1.08-3.24-6.15-9.54-7.74-18.32-6.12-9.05,1.66-18.64,9.07-23.39,17.28,2.92.2,4.93,1.08,6.19,3"></path></svg>